<svg width="30" height="30" fill="none" xmlns="http://www.w3.org/2000/svg"><g clip-path="url(#clip0)"><path d="M27.99 7.5l-3.481-2.009-2.01-3.48h-4.018L15 0l-3.481 2.01h-4.02L5.49 5.49 2.01 7.5v4.019L0 15l2.01 3.482V22.5l3.48 2.01 2.01 3.48h4.02L15 30l3.48-2.01h4.02l2.01-3.481 3.48-2.01V18.48L30 15l-2.01-3.482V7.501zM13.646 21.14c-.28.28-.648.416-1.015.41a1.401 1.401 0 01-1.015-.41l-4.387-4.387a1.408 1.408 0 010-1.99L8.39 13.6c.55-.55 1.441-.55 1.99 0l2.25 2.25 6.988-6.988a1.408 1.408 0 011.99 0l1.162 1.162c.55.55.55 1.44 0 1.99l-9.124 9.125z" fill="#27AE60"/></g><defs><clipPath id="clip0"><path fill="#fff" d="M0 0h30v30H0z"/></clipPath></defs></svg>