<svg width="30" height="30" fill="none" xmlns="http://www.w3.org/2000/svg"><path d="M29.866 8.009c-.09-.647-.223-1.34-.402-2.076-.178-.737-.443-1.362-.795-1.875-.351-.514-.745-.77-1.18-.77-.05-.218-.293-.193-.729.075-.435.268-.639.357-.61.268.027-.09-.124.022-.453.335l-.493.468-.494.494c-.435.413-1.069.728-1.9.946-.832.218-1.744.351-2.737.402-.994.05-1.99.084-2.989.1-.999.017-2 .067-3.005.15-1.004.085-1.814.227-2.427.428a15.652 15.652 0 00-3.416 1.599 14.612 14.612 0 00-2.854 2.327 9.99 9.99 0 00-1.992 3.089 9.531 9.531 0 00-.728 3.683 10 10 0 00.15 1.74c.023.112.112.358.268.737.157.38.235.592.235.637 0 .212-.173.48-.52.803-.345.324-.725.637-1.138.938A6.02 6.02 0 00.52 23.603c-.346.43-.519.84-.519 1.23a.995.995 0 00.075.386c.017.033.048.089.092.167a7.372 7.372 0 00.552.887c.112.145.285.279.52.402.234.123.519.184.854.184.324 0 .658-.179 1.004-.535.346-.357.64-.748.88-1.172.239-.424.49-.815.752-1.172.263-.357.483-.536.662-.536.256 0 .792.207 1.607.62.814.413 1.306.647 1.473.703a14.75 14.75 0 004.788.787c2.5 0 4.944-.603 7.333-1.808 2.444-1.217 4.439-2.712 5.985-4.487 1.546-1.775 2.575-3.912 3.089-6.412A16.16 16.16 0 0030 9.616c0-.424-.045-.96-.134-1.607zm-8.756 5.675a1.03 1.03 0 01-.753.318c-2.032 0-3.781.29-5.249.87-1.467.58-2.966 1.563-4.495 2.947-.223.212-.596.58-1.121 1.105-.525.524-.938.92-1.239 1.188-.234.213-.485.319-.753.319a1.03 1.03 0 01-.754-.319 1.029 1.029 0 01-.318-.753c0-.268.106-.519.318-.753 1.362-1.507 2.676-2.732 3.943-3.675 1.267-.943 2.715-1.69 4.344-2.243 1.63-.553 3.404-.829 5.324-.829.29 0 .541.106.753.318.212.212.318.463.318.754 0 .29-.105.54-.318.753z" fill="#27AE60"/></svg>