<svg width="30" height="30" fill="none" xmlns="http://www.w3.org/2000/svg"><g clip-path="url(#clip0)"><path d="M14.819.004h-.058C14.728-.004 14.718 0 14.694 0A15.078 15.078 0 004.246 4.246L1.178 1.131a.523.523 0 00-.559-.114.52.52 0 00-.32.477V11.61c0 .285.23.515.512.515h10.016a.514.514 0 00.257-.96l-3.03-3.067c1.797-1.735 4.141-2.685 6.713-2.685 5.247.034 9.52 4.33 9.52 9.664-.04 5.242-4.337 9.509-9.67 9.509L14.63 30h.074c8.214 0 14.945-6.686 14.998-14.997 0-8.21-6.67-14.93-14.883-15z" fill="#27AE60"/></g><defs><clipPath id="clip0"><path fill="#fff" d="M0 0h30v30H0z"/></clipPath></defs></svg>